Coordinates
version=1
nRows=11
nColumns=63
inDegrees=yes

Units are S.I. units (second, meters, Newtons, ...)
If the header above contains a line with 'inDegrees', this indicates whether rotational values are in degrees (yes) or radians (no).

endheader
time	pelvis_tilt	pelvis_list	pelvis_rotation	pelvis_tx	pelvis_ty	pelvis_tz	hip_flexion_r	hip_adduction_r	hip_rotation_r	knee_angle_r	knee_angle_r_beta	ankle_angle_r	subtalar_angle_r	mtp_angle_r	hip_flexion_l	hip_adduction_l	hip_rotation_l	knee_angle_l	knee_angle_l_beta	ankle_angle_l	subtalar_angle_l	mtp_angle_l	L5_S1_Flex_Ext	L5_S1_Lat_Bending	L5_S1_axial_rotation	L4_L5_Flex_Ext	L4_L5_Lat_Bending	L4_L5_axial_rotation	L3_L4_Flex_Ext	L3_L4_Lat_Bending	L3_L4_axial_rotation	L2_L3_Flex_Ext	L2_L3_Lat_Bending	L2_L3_axial_rotation	L1_L2_Flex_Ext	L1_L2_Lat_Bending	L1_L2_axial_rotation	L1_T12_Flex_Ext	L1_T12_Lat_Bending	L1_T12_axial_rotation	Abs_r3	Abs_r2	Abs_r1	Abs_t1	Abs_t2	neck_flexion	neck_bending	neck_rotation	arm_flex_r	arm_add_r	arm_rot_r	elbow_flex_r	pro_sup_r	wrist_flex_r	wrist_dev_r	arm_flex_l	arm_add_l	arm_rot_l	elbow_flex_l	pro_sup_l	wrist_flex_l	wrist_dev_l
1.122449	-2.462213	-9.547732	74.163407	0.500922	0.584177	0.682773	26.213936	-3.227394	3.773333	34.024272	0.593836	38.960622	1.071151	0.000000	16.647058	1.729514	-8.446929	20.595253	0.359455	35.330055	-11.444265	0.000000	-0.236445	1.047385	0.647697	-0.439103	1.393021	0.688178	-0.388456	2.546611	0.688178	-0.270233	2.546611	0.566735	-0.219563	2.135827	0.526254	-0.135105	1.622399	0.485773	-1.688905	11.848223	3.602296	0.000000	0.000000	6.253960	-7.237387	24.972797	39.674997	-26.851419	127.298209	-1.342131	-4.003443	-2.617990	-17.690643	92.049441	-61.759236	17.448084	135.898110	80.566421	3.511363	25.786833
1.142857	-2.812107	-9.862320	74.751967	0.502341	0.583659	0.681205	26.491110	-3.799510	2.627768	34.156539	0.596144	39.119252	0.839940	0.000000	17.033779	1.940912	-8.017762	20.431804	0.356602	35.430934	-11.135770	0.000000	-0.198179	0.983475	0.638359	-0.368039	1.308022	0.678256	-0.325589	2.391221	0.678256	-0.226499	2.391221	0.558564	-0.184029	2.005502	0.518667	-0.113240	1.523403	0.478769	-1.415575	11.125265	3.550360	0.000000	0.000000	7.764882	-7.891577	28.385234	38.194861	-26.746887	126.858001	-1.181681	-3.714558	-2.441678	-19.015218	93.627881	-64.595732	17.389901	136.877170	80.080445	3.885541	26.670392
1.163265	-2.871638	-10.130008	75.579393	0.503409	0.583499	0.679073	26.552477	-4.160159	1.502830	34.173783	0.596445	39.228181	0.570495	0.000000	17.284098	1.958220	-7.376550	20.225976	0.353010	35.588177	-10.898654	0.000000	-0.155092	0.923826	0.647889	-0.288022	1.228689	0.688382	-0.254801	2.246191	0.688382	-0.177255	2.246191	0.566903	-0.144019	1.883867	0.526410	-0.088620	1.431007	0.485917	-1.107807	10.450508	3.603363	0.000000	0.000000	9.346182	-8.658965	31.711352	35.598730	-27.205469	123.935921	-0.502396	-2.228356	-2.200755	-19.700259	93.767767	-67.191919	15.807532	137.842918	79.945088	4.164029	26.989570
1.183673	-2.673745	-10.355411	76.636416	0.504126	0.583662	0.676520	26.445559	-4.331819	0.402312	34.110741	0.595345	39.319511	0.383223	0.000000	17.428576	1.807398	-6.568852	19.995116	0.348981	35.751212	-10.725490	0.000000	-0.112443	0.863697	0.671668	-0.208818	1.148717	0.713648	-0.184733	2.099992	0.713648	-0.128511	2.099992	0.587710	-0.104415	1.761250	0.545730	-0.064250	1.337866	0.503751	-0.803171	9.770310	3.735617	0.000000	0.000000	10.928792	-9.383878	34.728739	32.176259	-28.193058	118.353198	0.830181	0.713584	-1.953034	-19.617042	92.240790	-69.454718	12.456939	138.771363	80.163423	4.212552	26.792077
1.204082	-2.261049	-10.550632	77.858454	0.504600	0.584099	0.673682	26.220116	-4.317812	-0.576550	33.992615	0.593283	39.411372	0.337052	0.000000	17.487532	1.505958	-5.707364	19.750444	0.344710	35.855015	-10.610096	0.000000	-0.074798	0.799812	0.706969	-0.138908	1.063750	0.751155	-0.122886	1.944662	0.751155	-0.085487	1.944662	0.618598	-0.069458	1.630976	0.574413	-0.042740	1.238908	0.530227	-0.534278	9.047630	3.931952	0.000000	0.000000	12.492005	-9.934184	37.308996	28.360657	-29.620711	110.697675	2.777879	5.058226	-1.717591	-18.792408	89.113646	-71.360153	7.486257	139.660130	80.703517	3.949465	26.180767
1.224490	-1.688832	-10.727250	79.198025	0.504944	0.584719	0.670696	25.928838	-4.136191	-1.358536	33.857843	0.590931	39.499868	0.445945	0.000000	17.488054	1.082845	-4.880672	19.507506	0.340470	35.851659	-10.536276	0.000000	-0.044095	0.729948	0.755382	-0.081890	0.970831	0.802594	-0.072444	1.774796	0.802594	-0.050397	1.774796	0.660959	-0.040947	1.488510	0.613748	-0.025196	1.130690	0.566537	-0.314969	8.257321	4.201209	0.000000	0.000000	14.014159	-10.219705	39.382955	24.442790	-31.350121	101.491854	5.302858	10.665167	-1.528858	-17.304761	84.876417	-72.857053	1.542379	140.473183	81.485532	3.425250	25.266853
1.244898	-1.002339	-10.891447	80.601773	0.505194	0.585433	0.667665	25.604075	-3.810753	-1.905700	33.729986	0.588699	39.564472	0.728123	0.000000	17.449852	0.567639	-4.139051	19.282904	0.336550	35.728388	-10.502468	0.000000	-0.020582	0.656786	0.815065	-0.038222	0.873526	0.866007	-0.033813	1.596910	0.866007	-0.023523	1.596910	0.713182	-0.019112	1.339319	0.662241	-0.011760	1.017362	0.611299	-0.147012	7.429699	4.533150	0.000000	0.000000	15.474273	-10.242844	41.000356	20.617317	-33.229587	91.061791	8.430449	17.360293	-1.416985	-15.216771	79.829690	-73.896583	-4.871392	141.229188	82.277914	2.645279	24.198309
1.265306	-0.242196	-11.039734	82.037333	0.505337	0.586127	0.664704	25.270480	-3.375316	-2.220089	33.637076	0.587078	39.613391	1.188042	0.000000	17.402045	-0.005970	-3.481858	19.114436	0.333610	35.525572	-10.510369	0.000000	-0.003889	0.583616	0.881698	-0.007222	0.776209	0.936804	-0.006389	1.419004	0.936804	-0.004445	1.419004	0.771486	-0.003611	1.190110	0.716379	-0.002222	0.904021	0.661273	-0.027778	6.601980	4.903738	0.000000	0.000000	16.855652	-10.057419	42.139523	16.958710	-35.078196	79.666629	12.218753	24.842313	-1.396378	-12.471632	74.162222	-74.459593	-11.350304	141.939560	82.858797	1.634395	22.960008
1.285714	0.562172	-11.168860	83.453349	0.505339	0.586725	0.661912	24.946456	-2.855440	-2.316433	33.584716	0.586164	39.657027	1.832634	0.000000	17.355040	-0.613712	-2.901831	19.010471	0.331795	35.275890	-10.579323	0.000000	0.008504	0.515630	0.942569	0.015793	0.685788	1.001480	0.013971	1.253704	1.001480	0.009719	1.253704	0.824748	0.007897	1.051474	0.765838	0.004859	0.798712	0.706927	0.060743	5.832914	5.242288	0.000000	0.000000	18.089023	-9.730761	42.801656	13.646262	-36.737271	67.733135	16.637485	32.934933	-1.367093	-9.110715	67.796527	-74.578402	-17.810972	142.666274	83.239973	0.502569	21.614696
1.306122	1.364669	-11.261011	84.795895	0.505226	0.587177	0.659446	24.646632	-2.286418	-2.197069	33.588466	0.586229	39.708328	2.611743	0.000000	17.320477	-1.219423	-2.402125	19.001722	0.331643	35.009555	-10.715586	0.000000	0.016096	0.454607	1.008738	0.029891	0.604627	1.071784	0.026444	1.105331	1.071784	0.018396	1.105331	0.882646	0.014947	0.927034	0.819600	0.009197	0.704186	0.756554	0.114970	5.142603	5.610299	0.000000	0.000000	19.120296	-9.327763	42.880026	10.691974	-38.166740	55.417720	21.744825	41.199054	-1.336817	-5.234209	60.936188	-74.251183	-23.865078	143.316010	83.616642	-0.758927	20.014903
1.326531	2.114229	-11.297069	86.015400	0.505079	0.587527	0.657385	24.358814	-1.714297	-1.881752	33.630188	0.586958	39.766119	3.480547	0.000000	17.274787	-1.776416	-1.952914	19.064624	0.332740	34.688911	-10.984351	0.000000	0.019681	0.400435	1.106264	0.036550	0.532579	1.175405	0.032334	0.973619	1.175405	0.022494	0.973619	0.967981	0.018276	0.816568	0.898839	0.011246	0.620275	0.829698	0.140581	4.529806	6.152708	0.000000	0.000000	19.824696	-8.874782	42.235510	8.044933	-39.380116	42.857328	27.523855	49.649223	-1.105082	-0.969746	53.982256	-73.411359	-29.008219	143.722086	84.139531	-2.042213	18.180227
